<?xml version="1.0" encoding="UTF-8"?><svg id="a" xmlns="http://www.w3.org/2000/svg" width="79.14" height="79.14" viewBox="0 0 79.14 79.14"><path d="M72.86,0H6.28C2.81,0,0,2.81,0,6.28v66.58c0,3.47,2.81,6.28,6.28,6.28h66.58c3.47,0,6.28-2.81,6.28-6.28V6.28c0-3.47-2.81-6.28-6.28-6.28ZM51.58,32.54c.56-5.56,3.33-10.44,5.32-10.44,1.71,0,4.86,4.78,5.32,10.44.43,5.28-1.95,9.67-4.62,10.34v2.61h-1.43v-2.61c-2.68-.69-5.12-5.08-4.6-10.34ZM44.9,10.22c2.97,0,5.95,4.76,5.37,10.55-.5,4.96-2.74,9.38-4.64,10.34v9.47h-1.49v-9.52c-1.77-1.06-4.21-5.34-4.61-10.29-.47-5.8,2.41-10.55,5.37-10.55ZM20.45,30.84c.81-8.12,4.86-15.25,7.77-15.25,2.5,0,7.09,6.98,7.77,15.25.63,7.71-2.84,14.12-6.74,15.1v3.81h-2.09v-3.82c-3.91-1.01-7.48-7.42-6.71-15.1ZM18.58,54.41c8.85,3.03,20.05,1.41,26.95-5.02,0,0,.79.11.79.11,6.55.65,14.28,3.35,20.11-.95-4.34,6.15-12.92,5.05-19.62,4.68-10.05,9.06-29.61,8.71-36.32-4.06,2.38,2.39,5.13,4.15,8.08,5.23ZM49.25,63.27c-10.69,9.17-31.59,7.18-37.86-6.01,2.59,2.37,5.47,4.03,8.51,5.11,8.56,2.75,19.56,2.26,26.7-3.37,0,0,.97-.86.97-.86l1.04.15c7.03,1.04,14.01-.07,20.04-4.29-3.92,6.58-11.97,9.51-19.4,9.27Z" fill="#688c4f"/></svg>