<?xml version="1.0" encoding="UTF-8"?><svg id="a" xmlns="http://www.w3.org/2000/svg" width="349.43" height="65.42" viewBox="0 0 349.43 65.42"><path d="M93.58,46.98h18.66v7.06h-27.45V11.38h8.79v35.6Z" fill="#fff"/><path d="M135.09,54.04c-.39-.76-.67-1.71-.85-2.84-2.05,2.29-4.72,3.43-8,3.43-3.11,0-5.68-.9-7.72-2.7-2.04-1.8-3.06-4.06-3.06-6.8,0-3.36,1.25-5.94,3.74-7.73s6.09-2.71,10.8-2.72h3.9v-1.82c0-1.46-.38-2.64-1.13-3.52-.75-.88-1.94-1.32-3.56-1.32-1.43,0-2.54.34-3.35,1.03-.81.68-1.22,1.62-1.22,2.81h-8.47c0-1.84.57-3.54,1.7-5.1,1.13-1.56,2.73-2.79,4.8-3.68,2.07-.89,4.39-1.33,6.97-1.33,3.91,0,7.01.98,9.3,2.94,2.29,1.96,3.44,4.72,3.44,8.28v13.74c.02,3.01.44,5.28,1.26,6.83v.5h-8.55ZM128.09,48.15c1.25,0,2.4-.28,3.46-.83s1.84-1.3,2.34-2.24v-5.45h-3.16c-4.24,0-6.49,1.46-6.77,4.39l-.03.5c0,1.05.37,1.92,1.11,2.61.74.68,1.76,1.03,3.05,1.03Z" fill="#fff"/><path d="M176.46,42.53l4.16-20.19h8.17l-8.09,31.7h-7.09l-6.01-19.95-6.01,19.95h-7.06l-8.09-31.7h8.17l4.13,20.16,5.8-20.16h6.12l5.77,20.19Z" fill="#fff"/><path d="M200.78,22.34l.26,3.66c2.27-2.83,5.3-4.25,9.11-4.25,3.36,0,5.86.99,7.5,2.96,1.64,1.97,2.48,4.92,2.52,8.85v20.48h-8.47v-20.27c0-1.8-.39-3.1-1.17-3.91s-2.08-1.22-3.9-1.22c-2.38,0-4.17,1.02-5.36,3.05v22.35h-8.47v-31.7h7.97Z" fill="#fff"/><path d="M260.89,48.65c-1.58,1.89-3.82,3.36-6.71,4.41-2.89,1.04-6.09,1.57-9.61,1.57-3.69,0-6.93-.81-9.71-2.42s-4.93-3.95-6.45-7.02-2.29-6.67-2.33-10.81v-2.9c0-4.26.72-7.94,2.15-11.06,1.44-3.12,3.51-5.5,6.21-7.15,2.71-1.65,5.87-2.48,9.51-2.48,5.06,0,9.01,1.21,11.87,3.62,2.85,2.41,4.54,5.92,5.07,10.53h-8.55c-.39-2.44-1.25-4.23-2.59-5.36-1.34-1.13-3.18-1.7-5.52-1.7-2.99,0-5.26,1.12-6.83,3.37-1.56,2.25-2.35,5.59-2.37,10.02v2.72c0,4.47.85,7.85,2.55,10.14s4.19,3.43,7.47,3.43,5.65-.7,7.06-2.11v-7.35h-8v-6.47h16.79v17.02Z" fill="#fff"/><path d="M266.14,37.9c0-3.14.61-5.95,1.82-8.41s2.95-4.37,5.23-5.71,4.92-2.02,7.92-2.02c4.28,0,7.77,1.31,10.47,3.93s4.21,6.17,4.53,10.66l.06,2.17c0,4.86-1.36,8.76-4.07,11.7s-6.36,4.41-10.93,4.41-8.22-1.46-10.94-4.39-4.09-6.91-4.09-11.95v-.38ZM274.61,38.5c0,3.01.57,5.32,1.7,6.91,1.13,1.59,2.75,2.39,4.86,2.39s3.65-.79,4.8-2.36c1.15-1.57,1.73-4.09,1.73-7.56,0-2.95-.58-5.24-1.73-6.87-1.15-1.62-2.77-2.44-4.86-2.44s-3.67.81-4.8,2.42c-1.13,1.61-1.7,4.11-1.7,7.5Z" fill="#fff"/><path d="M319.75,54.04c-.39-.76-.67-1.71-.85-2.84-2.05,2.29-4.72,3.43-8,3.43-3.11,0-5.68-.9-7.72-2.7s-3.06-4.06-3.06-6.8c0-3.36,1.25-5.94,3.74-7.73s6.09-2.71,10.8-2.72h3.9v-1.82c0-1.46-.38-2.64-1.13-3.52s-1.94-1.32-3.56-1.32c-1.43,0-2.54.34-3.35,1.03s-1.22,1.62-1.22,2.81h-8.47c0-1.84.57-3.54,1.7-5.1s2.73-2.79,4.8-3.68c2.07-.89,4.39-1.33,6.97-1.33,3.91,0,7.01.98,9.3,2.94s3.44,4.72,3.44,8.28v13.74c.02,3.01.44,5.28,1.26,6.83v.5h-8.55ZM312.75,48.15c1.25,0,2.4-.28,3.46-.83s1.84-1.3,2.34-2.24v-5.45h-3.16c-4.24,0-6.49,1.46-6.77,4.39l-.03.5c0,1.05.37,1.92,1.11,2.61s1.76,1.03,3.05,1.03Z" fill="#fff"/><path d="M343.69,14.55v7.79h5.42v6.21h-5.42v15.82c0,1.17.22,2.01.67,2.52s1.31.76,2.58.76c.94,0,1.77-.07,2.49-.21v6.42c-1.66.51-3.37.76-5.13.76-5.94,0-8.96-3-9.08-8.99v-17.08h-4.63v-6.21h4.63v-7.79h8.47Z" fill="#fff"/><path d="M2.35,20.75c.59-1.46,1.29-2.91,2.11-4.34-.84,1.4-1.54,2.85-2.11,4.34Z" fill="#fff"/><path d="M4.47,16.42c.84-1.43,1.77-2.76,2.75-3.99-1.01,1.24-1.94,2.56-2.75,3.99Z" fill="#fff"/><path d="M58.63,13.27c-1.22.01-2.36.24-3.31.63-.15.06-.3.13-.44.2,3.49,4.99,5.39,11.01,5.51,17.07-8.78-5.42-7.27-10.54-9.57-14.59,0-5.11,10.19-7.99,16.36-1.82,0-6.39-7.39-9.73-14.32-9.74-7.77,0-12.01,3.15-16.82,7.95-3.24,0-8.29,1.08-10.09,6.13s-5.59,10.48-10.81,13.7c-6.85,2.88-5.41,5.05-4.69,10.45.42,3.13,3.51,4.56,8.33,4.87.19,1.56.4,3.16-.56,4.95-.23.43.21.91.65.69,2.92-1.44,6.5-4.4,7.4-5.87,1.72-.17,3.54-.39,5.45-.68,7.67-1.16,14.11,3.98,17.65,7.65-9.09,7.27-22.4,9.07-33.03,3.26C2.83,51.2-3,34.56,2.35,20.75c-9.55,23.59,11.38,49.84,37.63,43.79,17.97-4.09,29.11-23.18,23.84-40.84-1.18-3.97-2.97-7.44-5.2-10.43Z" fill="#fff"/><path d="M43.35,4.4c.82-.45,1.73-.78,2.95-.9C33.59-3.49,16.94.24,7.22,12.43,15.83,1.95,31.1-1.52,43.35,4.4Z" fill="#fff"/></svg>