<?xml version="1.0" encoding="UTF-8"?><svg id="a" xmlns="http://www.w3.org/2000/svg" width="79.14" height="79.14" viewBox="0 0 79.14 79.14"><path d="M72.86,0H6.28C2.81,0,0,2.81,0,6.28v66.58c0,3.47,2.81,6.28,6.28,6.28h66.58c3.47,0,6.28-2.81,6.28-6.28V6.28c0-3.47-2.81-6.28-6.28-6.28ZM57.67,8.48c-8.08,13.73-8.82,16.57-10.21,30.49-1.24-3.35-2.46-6.28-4.08-8.99,2.61-7.41,5.79-13.6,14.29-21.51ZM61.14,56.12c-2.52,7.08-8.78,12.22-11.28,13.09s-17.68.96-18.6.49c-1.71,2.33-10.44-.03-14.43-2.24-.77-.42-.93-1.46-.34-2.11,8.37-9.2,12.24-11.86,16.69-11.82,4.63.05,9.81-.04,16.64-.34,2.37-.1-1.19,4.85-3.84,5.47-1.96.46-8.35-.25-8.53.7-.61,3.18,5.04,2.64,10.18,2.05,5.76-2.5,9.3-8.9,10.97-9.76,2.56-1.33,4.7-1.56,2.55,4.47ZM53.95,45.06c-.14,2.11-1.89,3.73-4,3.73h-16.51c-2.01,0-3.76-1.49-3.97-3.49-.83-7.79-6.92-12.03-13.96-15.63,10.49,1.44,16.45,5.35,21.59,15.63-1.03-12.34-2.67-17.89-14.81-29.41,18.51,9.67,20.57,16.66,25.5,30.64,1.03-4.52,3.08-14.19,15.84-20.36-7.63,5.97-9.37,14.18-9.69,18.89Z" fill="#688c4f"/></svg>