<?xml version="1.0" encoding="UTF-8"?><svg id="a" xmlns="http://www.w3.org/2000/svg" width="79.14" height="79.14" viewBox="0 0 79.14 79.14"><path d="M33.59,36.05c.18,0,.36-.06.5-.18.34-.28.39-.78.11-1.12-3.18-3.9-5.89-6.42-7.51-7.93l-.52-.48c-.32-.3-.82-.29-1.13.03-.3.32-.29.82.04,1.13.16.15.34.31.52.49,1.59,1.48,4.25,3.96,7.37,7.77.16.19.39.29.62.29Z" fill="#688c4f"/><path d="M42.78,29.22c.11.05.21.07.32.07.31,0,.6-.18.73-.47,1.93-4.36,4.9-7.9,7.03-9.77.33-.29.36-.79.08-1.12-.29-.33-.79-.36-1.12-.08-2.26,1.98-5.4,5.72-7.44,10.32-.18.4,0,.87.4,1.05Z" fill="#688c4f"/><path d="M72.86,0H6.28C2.81,0,0,2.81,0,6.28v66.58c0,3.47,2.81,6.28,6.28,6.28h66.58c3.47,0,6.28-2.81,6.28-6.28V6.28c0-3.47-2.81-6.28-6.28-6.28ZM14.61,65.69c-.44.84-3.84,1.83-4.63,1.45-1.05-.51-1.23-3.02-.79-3.99.42-.93,2.78-2.92,3.89-1.83.41.4,1.81,3.84,1.53,4.37ZM23.03,66.17l-.48.48c-1.5-.21-3.71.29-5.09,0-.33-.07-1.26-.79-1.37-1.17.13-1.55-1.11-6.55-.36-7.56.8-1.08,7.3-1.25,7.3-.02v8.28ZM21.59,34.82c-1.5-2.61-2.22-5.76-2.07-8.78.04-.71.46-3.56.81-3.96.78-.9,6.83-.74,8.19-.56,5.59.76,13.25,8.01,8.84,13.68-.38.48-1.4.74-1.35,1.51,0,0,0,0,0,0,.27.31.54.62.8.91.75.84,1.36,1.53,1.84,2.13.47-2.71,1.52-6.54,2.97-10.11-4.83-2.76-4.51-8.19-1.39-12.19,4.52-5.79,13.1-7.67,19.9-5.27.8,3.49,1.08,6.69.32,10.21-1.26,5.87-6.77,12.63-13.36,11.74-2.34-.32-2.88-2.13-4.32-3.08-1.84,4.75-2.81,9.48-2.81,11.23h0s0,.02,0,.03c-.08,2.04-.24,5.83-.09,7.95.03.44-.3.82-.74.85-.02,0-.04,0-.06,0-.41,0-.76-.32-.79-.74-.15-2.21,0-6.05.09-8.12,0,0,0,0,0,0-.03-.51-1.54-2.21-2.75-3.57-.29-.33-.6-.68-.91-1.03-.44.25-.66.91-.97,1.18-4.17,3.62-9.83.04-12.16-4.02ZM42.79,51.54c.81-.51,5.61-1.73,6.27-1.05.56.57.51,2.99.26,3.76-.25.75-3.35,2.84-4.11,2.77-2.17-.18-5.03-3.84-2.42-5.48ZM42.27,61.24c-.74.11-8.35-1.85-8.59-2.22v-3.2c.36-.59,2.53-.79,3.29-.86.89-.08,2.19-.28,3.02-.03.3.09,3.02,2.42,3.26,2.78.78,1.17.4,3.31-.99,3.53ZM31.49,57.43c-.82.52-5.85.58-6.39-.33-.6-1,2.08-6.16,2.85-6.72,1.13-.83,3.68-.02,4.92.39.15,1.38-.25,5.95-1.37,6.66ZM31.53,67.38c-1.44-.05-5.95-.09-6.61-1.19-.47-.79-.53-5.54.09-6.15.44-.43,5.92-1.14,6.7-.96.41.09,3.08,1.89,3.25,2.16.8,1.29-2.38,5.18-3.44,6.14ZM48.02,67.29c-.4.83-1.75.68-2.56.65-2.39-.08-6.25-.32-8.56-.67-3.27-.49-.11-3.98.99-5.35.38-.14.75-.01,1.13.03.86.1,8.07,2.03,8.51,2.33.84.57.9,2.17.49,3.01ZM45.28,60.44c0-.81,2.31-3.54,3.05-3.99.98-.6,3.35-.78,4.56-.85.92-.05,2.15-.29,3.02-.03.29.08,1.85,1.59,1.97,1.85.6,1.29-.9,2.85-1.9,3.5-.65.42-6.41,2.58-7.02,2.56-.98-.03-3.69-1.91-3.68-3.04ZM62.35,66.65h-9.23l-.73-1.16c-.08-.85,3.76-4.01,4.65-4.46,1.29-.65,3.04-.12,4.28.6,1.19.68,2.25,5.03,1.02,5.03ZM70,62.52c-.35.51-4.46,1.98-5.28,1.43-.3-.2-1.66-4.52-1.59-5.09.13-1,1.31-1.27,2.17-1.37.4-.05.74-.12,1.15-.07,1.17.14,4.51,3.67,3.54,5.1Z" fill="#688c4f"/></svg>